# xmcd
#
# Track frame offsets:
#	150
#	14025
#	34875
#	54825
#	71325
#	88650
#	101775
#	120975
#	136650
#	153450
#	169650
#	183900
#	200025
#	219675
#
# Disc length: 3152 seconds
#
# Revision: 1
# Processed by: cddbd v1.5PL3 Copyright (c) Steve Scherf et al.
# Submitted via: EasyCDDAExtractor 6.0.0.1
#
DISCID=bf0c4e0e
DTITLE=Modena City Ramblers - Fuori Campo
DYEAR=1900
DGENRE=
TTITLE0=Etnica Danza
TTITLE1=Fuori Campo
TTITLE2=Natale a San cristobal (no llores nino)
TTITLE3=la roda
TTITLE4=celtica patchanka
TTITLE5=il matto
TTITLE6=Coi Piedi Per Terra
TTITLE7=il vagabondo stanco
TTITLE8=la rumba
TTITLE9=suad
TTITLE10=movimento
TTITLE11=lo straniero pazzo
TTITLE12=figli dell'officina
TTITLE13=l'uomo delle pianure
EXTD=
EXTT0=
EXTT1=
EXTT2=
EXTT3=
EXTT4=
EXTT5=
EXTT6=
EXTT7=
EXTT8=
EXTT9=
EXTT10=
EXTT11=
EXTT12=
EXTT13=
PLAYORDER=
